<svg width="85" height="60" viewBox="0 0 85 60" fill="none" xmlns="http://www.w3.org/2000/svg">
<path d="M14.6979 12C18.6945 12 21.8744 12.9082 24.2376 14.7246C26.6355 16.541 27.8345 18.9354 27.8345 21.9077C27.8345 24.6158 27.0699 26.7955 25.5408 28.4468C24.0464 30.065 21.7701 31.6337 18.7119 33.1529C15.6884 34.6391 13.6901 35.8115 12.717 36.6701C11.7439 37.4958 11.2227 38.404 11.1532 39.3947H28.7207V46.1815H0.675176C0.640423 45.8843 0.623047 45.3724 0.623047 44.6458C0.623047 41.1121 1.33548 38.2223 2.76034 35.9766C4.18521 33.7309 6.8438 31.5842 10.7361 29.5366C13.6554 27.9844 15.7058 26.7129 16.8874 25.7221C18.069 24.7314 18.6598 23.4929 18.6598 22.0068C18.6598 20.9499 18.3122 20.1243 17.6172 19.5298C16.9221 18.9024 15.949 18.5886 14.6979 18.5886C11.5702 18.5886 10.0063 20.2399 10.0063 23.5425H1.09221C1.12696 19.8436 2.34331 17.0034 4.74126 15.0218C7.1392 13.0073 10.4581 12 14.6979 12Z" fill="white"/>
<path d="M28.5794 12.4623H55.9472L55.9498 19.3482C53.3433 22.8159 51.067 26.8615 49.1208 31.4851C47.1747 36.1087 45.5238 41.3102 44.5855 46.264H34.9937C36.1753 40.9469 38.0694 35.5472 40.2589 30.8906C42.4483 26.234 44.7941 22.4361 47.2963 19.4968H28.5819L28.5794 12.4623Z" fill="white"/>
<path fill-rule="evenodd" clip-rule="evenodd" d="M65.9759 23.7405L65.9759 12.4462H57.3225L57.3225 46.1814H65.6632V43.0605H65.7674C67.4008 45.6035 69.8509 46.8749 73.1176 46.8749C76.5234 46.8749 79.2515 45.6695 81.3019 43.2586C83.3523 40.8478 84.3776 37.6278 84.3776 33.5986C84.3776 29.5695 83.3697 26.3495 81.3541 23.9387C79.3731 21.5278 76.6972 20.3223 73.3262 20.3223C70.1637 20.3223 67.7483 21.4617 66.0802 23.7405H65.9759ZM66.81 28.4467C67.7136 27.1917 68.8952 26.5642 70.3548 26.5642C71.8492 26.5642 73.0481 27.2082 73.9517 28.4962C74.8553 29.7512 75.3071 31.452 75.3071 33.5986C75.3071 35.7453 74.8553 37.4626 73.9517 38.7506C73.0481 40.0056 71.8492 40.6331 70.3548 40.6331C68.8952 40.6331 67.7136 40.0056 66.81 38.7506C65.9412 37.4957 65.5068 35.7783 65.5068 33.5986C65.5068 31.419 65.9412 29.7016 66.81 28.4467Z" fill="white"/>
</svg>
