<svg width="108" height="60" viewBox="0 0 108 60" fill="none" xmlns="http://www.w3.org/2000/svg">
<path fill-rule="evenodd" clip-rule="evenodd" d="M24.4435 27.6878C24.4435 34.9195 20.7869 40.6378 15.2817 40.6378C9.90047 40.6378 6.03964 35.1631 6.03964 27.6045C6.03964 20.3728 9.69492 14.6545 15.2001 14.6545C20.582 14.6545 24.4435 20.1292 24.4435 27.6878ZM30.4825 27.4841C30.4825 19.3536 24.2373 12.8975 15.2817 12.8975C7.02488 12.8975 0 18.781 0 27.8075C0 35.938 6.24449 42.3934 15.2001 42.3934C23.4569 42.3934 30.4825 36.5141 30.4825 27.4841ZM43.7909 30.4234C43.7909 33.2836 42.4768 35.7351 40.4227 35.7351C38.4508 35.7351 36.89 33.5692 36.89 30.2603C36.89 27.4414 38.2041 24.9487 40.2993 24.9487C42.2301 24.9487 43.7909 27.1138 43.7909 30.4234ZM57.7626 19.1898C57.7626 17.1465 55.9133 15.6352 52.5033 15.6352C47.8203 15.6352 44.2054 18.6592 44.2054 23.2757C44.2054 23.6432 44.2466 23.9295 44.2466 24.2158C43.0332 23.7212 41.7348 23.4715 40.4254 23.4808C36.7291 23.4808 32.292 25.7278 32.292 30.59C32.3168 31.7475 32.655 32.8762 33.2701 33.8552C33.8852 34.8341 34.7541 35.6263 35.7835 36.1466C32.4968 36.5953 30.6079 38.353 30.6079 41.09C30.6079 43.8683 32.8264 45.8703 36.975 45.3803L42.9729 44.6453C45.9725 44.2778 46.9577 45.339 46.9577 46.8923C46.9577 49.5887 44.411 51.7545 40.3439 51.7545C37.0983 51.7545 35.9069 50.61 35.9069 48.9755C35.9069 48.7305 35.9487 48.4036 35.9487 48.1586C35.9631 47.9385 35.9323 47.7177 35.8583 47.51C35.7842 47.3023 35.6684 47.1121 35.5182 46.9512C35.3679 46.7904 35.1863 46.6622 34.9847 46.5748C34.7831 46.4873 34.5657 46.4425 34.3461 46.4429C34.0887 46.4351 33.8327 46.4828 33.5952 46.5826C33.3577 46.6824 33.1442 46.8321 32.969 47.0217C32.7939 47.2112 32.6611 47.4362 32.5797 47.6816C32.4982 47.927 32.47 48.187 32.4969 48.4442C32.4969 51.1413 35.0854 53.5542 40.385 53.5542C46.3417 53.5542 50.1211 49.7134 50.1211 45.3013C50.1211 41.7873 47.2866 39.8671 43.384 40.3571L36.5228 41.2146C34.2639 41.5009 33.5657 40.7652 33.5657 39.6214C33.5657 38.2725 35.045 37.2113 40.1795 37.2113H40.2617C43.9999 37.2113 48.3958 34.9636 48.3958 30.1014C48.4007 28.5628 47.8121 27.082 46.7536 25.97C46.382 25.1802 46.2127 24.3097 46.2609 23.4375C46.2609 19.8423 48.7247 17.7996 51.2721 17.7996C52.3403 17.7996 52.6657 17.9627 52.6657 18.6984C52.6657 18.9021 52.6246 19.0659 52.6246 19.3109C52.6593 19.9821 52.9532 20.6133 53.4438 21.0702C53.9344 21.5272 54.583 21.7739 55.2518 21.7579C55.9206 21.742 56.5569 21.4646 57.0253 20.9848C57.4938 20.505 57.7575 19.8605 57.7605 19.1884M70.4947 40.6378L68.4818 40.4334C68.3359 40.417 68.2024 40.3435 68.1102 40.2289C68.018 40.1142 67.9745 39.9676 67.9891 39.8209V11.55L60.7587 13.3889V14.2464L62.8128 14.9002C62.9556 14.9473 63.0781 15.0417 63.1603 15.1681C63.2425 15.2944 63.2794 15.4451 63.265 15.5953V39.6998C63.2604 39.812 63.2328 39.9221 63.1839 40.0231C63.135 40.124 63.0658 40.2138 62.9808 40.2866C62.8957 40.3595 62.7966 40.414 62.6897 40.4466C62.5827 40.4792 62.4702 40.4893 62.3592 40.4761L60.526 40.5132L58.5806 40.4761C58.4696 40.4893 58.3571 40.4792 58.2501 40.4466C58.1432 40.414 58.044 40.3595 57.959 40.2866C57.874 40.2138 57.8048 40.124 57.7559 40.0231C57.707 39.9221 57.6794 39.812 57.6748 39.6998V23.3983L50.4464 25.2371V26.0946L52.4998 26.7484C52.6426 26.7955 52.7652 26.8899 52.8474 27.0163C52.9296 27.1426 52.9665 27.2933 52.9521 27.4435V39.8223C52.9667 39.969 52.9232 40.1156 52.831 40.2303C52.7388 40.3449 52.6053 40.4184 52.4594 40.4348L50.7753 40.6392V41.9469H70.494V40.6399L70.4947 40.6378ZM108 25.3589V24.0926H100.974V25.3176L102.617 25.6446C103.193 25.7671 103.357 26.2171 102.987 27.1145L99.2088 36.1851C99.0444 36.5526 98.8381 36.5526 98.7148 36.1851L95.1828 27.1145C94.8122 26.1751 95.0184 25.7671 95.5925 25.6446L97.2362 25.3176V24.0926H82.613V25.3176L84.256 25.6446C84.8309 25.7671 85.0364 26.2171 84.6664 27.1145L81.0105 36.6751C80.846 37.0433 80.6412 37.0433 80.5178 36.6751L76.8201 27.1145C76.4919 26.1751 76.6556 25.7671 77.2311 25.6446L78.8741 25.3176V24.0926H69.5903V25.3589L70.4961 25.5626C70.7735 25.6072 71.034 25.7254 71.2506 25.9051C71.4672 26.0848 71.632 26.3194 71.728 26.5846L78.0136 41.9469H80.8481L87.1337 26.5846C87.4619 25.767 87.8305 25.4402 88.4889 25.4402H88.7349C89.0264 25.4337 89.3113 25.5273 89.5428 25.7055C89.7742 25.8836 89.9383 26.1357 90.0079 26.4201L96.5813 42.3542L94.8142 46.5213C93.6646 49.2996 92.802 49.7903 91.7338 49.7903C91.2823 49.7903 90.7883 49.7084 90.2957 49.7084C90.0365 49.69 89.7764 49.7246 89.531 49.8102C89.2855 49.8957 89.0599 50.0304 88.8679 50.2062C88.6758 50.3819 88.5213 50.595 88.4136 50.8325C88.306 51.07 88.2474 51.327 88.2416 51.5879C88.2416 52.6911 89.1474 53.4675 90.5834 53.4675C92.6375 53.4675 94.6505 51.8329 96.3346 47.9108L105.29 27.0334C105.423 26.6385 105.663 26.2883 105.982 26.0216C106.301 25.7549 106.687 25.582 107.098 25.522L108 25.3589Z" fill="white"/>
</svg>
