<svg xmlns="http://www.w3.org/2000/svg" width="34" height="35" fill="none"><path stroke="#74B02A" stroke-linecap="round" stroke-linejoin="round" stroke-width="2.107" d="M15.567 25.898h5.617m-2.106-14.043h1.324c1.84 0 2.76 0 3.54.441.781.442 1.301 1.257 2.341 2.888.73 1.144 1.496 1.974 2.572 2.713 1.084.743 1.6 1.107 1.886 1.69.274.559.274 1.22.274 2.544 0 1.744 0 2.617-.49 3.171a1.64 1.64 0 0 1-.065.07c-.516.526-1.328.526-2.952.526h-.706M7.14 25.898c-1.985 0-2.978 0-3.595-.617s-.617-1.61-.617-3.596v-9.83c0-1.987 0-2.98.617-3.597s1.61-.617 3.596-.617h7.724c1.986 0 2.979 0 3.596.617s.617 1.61.617 3.597v14.043h-6.32M31.015 21.685h-1.404M11.354 13.259v5.617m2.809-2.809H8.545"/><path stroke="#74B02A" stroke-width="2.107" d="M23.993 28.707a2.809 2.809 0 1 0 0-5.618 2.809 2.809 0 0 0 0 5.618ZM9.95 28.707a2.809 2.809 0 1 0 0-5.618 2.809 2.809 0 0 0 0 5.618Z"/></svg>