<svg xmlns="http://www.w3.org/2000/svg" width="34" height="35" fill="none"><path stroke="#74B02A" stroke-linejoin="round" stroke-width="2.107" d="m22.589 15.015 3.019.906c1.928.578 2.892.868 3.447 1.614.556.746.556 1.753.556 3.766v10.567"/><path stroke="#74B02A" stroke-linecap="round" stroke-linejoin="round" stroke-width="2.107" d="M11.354 13.61h4.213m-4.213 5.618h4.213"/><path stroke="#74B02A" stroke-linejoin="round" stroke-width="2.107" d="M16.971 31.868v-4.213c0-1.324 0-1.986-.41-2.398-.412-.411-1.074-.411-2.398-.411h-1.405c-1.324 0-1.986 0-2.397.411-.411.412-.411 1.074-.411 2.398v4.213"/><path stroke="#74B02A" stroke-linecap="round" stroke-width="2.107" d="M2.928 31.868h28.087"/><path stroke="#74B02A" stroke-linecap="round" stroke-linejoin="round" stroke-width="2.107" d="M4.332 31.868V10.405c0-3.526 0-5.289 1.111-6.164 1.111-.874 2.747-.4 6.02.55l7.022 2.038c1.974.574 2.962.86 3.533 1.641.57.782.57 1.845.57 3.973v19.425"/></svg>