<svg xmlns="http://www.w3.org/2000/svg" width="29" height="28" fill="none"><path stroke="#74B02A" stroke-linejoin="round" stroke-width="1.295" d="M14.393 2.64H7.484c-2.857 0-3.454.596-3.454 3.453v19.571h13.815V6.094c0-2.858-.596-3.454-3.454-3.454ZM21.3 9.547h-3.454v16.117h6.907V13.001c0-2.857-.596-3.454-3.453-3.454Z"/><path stroke="#74B02A" stroke-linecap="round" stroke-linejoin="round" stroke-width="1.295" d="M9.788 7.245h2.302m-2.302 3.453h2.302m-2.302 3.454h2.302"/><path stroke="#74B02A" stroke-linejoin="round" stroke-width="1.295" d="M13.817 25.664V21.06c0-1.085 0-1.628-.337-1.965-.338-.337-.88-.337-1.966-.337h-1.15c-1.086 0-1.629 0-1.966.337-.337.337-.337.88-.337 1.965v4.605"/></svg>