<svg xmlns="http://www.w3.org/2000/svg" width="34" height="35" fill="none"><path stroke="#74B02A" stroke-width="2.107" d="M21.887 19.228c5.041 0 9.128-1.257 9.128-2.808 0-1.552-4.087-2.81-9.128-2.81-5.042 0-9.129 1.258-9.129 2.81 0 1.55 4.087 2.808 9.129 2.808ZM31.015 22.74c0 1.55-4.087 2.808-9.128 2.808-5.042 0-9.129-1.257-9.129-2.809"/><path stroke="#74B02A" stroke-width="2.107" d="M31.015 16.42v12.358c0 1.707-4.087 3.09-9.128 3.09-5.042 0-9.129-1.383-9.129-3.09V16.42M12.056 9.398c5.042 0 9.129-1.258 9.129-2.809 0-1.551-4.087-2.809-9.129-2.809-5.041 0-9.128 1.258-9.128 2.809 0 1.551 4.087 2.809 9.128 2.809Z"/><path stroke="#74B02A" stroke-linecap="round" stroke-width="2.107" d="M8.545 16.42c-2.657-.324-5.098-1.16-5.617-2.81m5.617 9.832c-2.657-.324-5.098-1.16-5.617-2.81"/><path stroke="#74B02A" stroke-linecap="round" stroke-width="2.107" d="M8.545 30.463c-2.657-.323-5.098-1.16-5.617-2.809V6.59M21.185 9.398v-2.81"/></svg>