<svg xmlns="http://www.w3.org/2000/svg" width="20" height="21" fill="none"><path stroke="#fff" stroke-width="2" d="M7.5 6.68c0-1.656 1.404-3.293 2.39-4.238a1.349 1.349 0 0 1 1.887 0c.985.945 2.39 2.582 2.39 4.238 0 1.624-1.263 3.294-3.334 3.294-2.07 0-3.333-1.67-3.333-3.294Z"/><path stroke="#fff" stroke-linecap="round" stroke-linejoin="round" stroke-width="2" d="M3.333 12.057H5.33c.245 0 .487.056.706.162l1.702.823c.219.106.46.161.706.161h.869c.84 0 1.521.66 1.521 1.473a.074.074 0 0 1-.055.07l-2.117.586c-.38.105-.787.068-1.14-.103l-1.82-.88"/><path stroke="#fff" stroke-linecap="round" stroke-linejoin="round" stroke-width="2" d="m10.833 14.14 3.828-1.175a1.654 1.654 0 0 1 1.837.628.896.896 0 0 1-.266 1.293L9.97 18.499c-.398.23-.868.286-1.306.156l-5.33-1.581"/></svg>