<svg xmlns="http://www.w3.org/2000/svg" width="25" height="24" fill="none"><path stroke="#fff" stroke-linejoin="round" stroke-width="1.5" d="M3 12c0-4.478 0-6.718 1.391-8.109S8.021 2.5 12.5 2.5c4.478 0 6.718 0 8.109 1.391S22 7.521 22 12c0 4.478 0 6.718-1.391 8.109C19.217 21.5 16.979 21.5 12.5 21.5c-4.478 0-6.718 0-8.109-1.391C3 18.717 3 16.479 3 12Z"/><path stroke="#fff" stroke-width="1.5" d="M17 12a4.5 4.5 0 1 1-9 0 4.5 4.5 0 0 1 9 0Z"/><path stroke="#fff" stroke-linecap="round" stroke-linejoin="round" stroke-width="2" d="M18.008 6.5h-.01"/></svg>