<svg xmlns="http://www.w3.org/2000/svg" width="25" height="24" fill="none"><path stroke="#fff" stroke-width="1.5" d="M5 9.5h-.5c-.943 0-1.414 0-1.707.293-.293.293-.293.764-.293 1.707V20c0 .943 0 1.414.293 1.707C3.086 22 3.557 22 4.5 22H5c.943 0 1.414 0 1.707-.293C7 21.414 7 20.943 7 20v-8.5c0-.943 0-1.414-.293-1.707C6.414 9.5 5.943 9.5 5 9.5ZM7 4.25a2.25 2.25 0 1 1-4.5 0 2.25 2.25 0 0 1 4.5 0Z"/><path stroke="#fff" stroke-linejoin="round" stroke-width="1.5" d="M12.826 9.5H12c-.943 0-1.414 0-1.707.293C10 10.086 10 10.557 10 11.5V20c0 .943 0 1.414.293 1.707.293.293.764.293 1.707.293h.5c.943 0 1.414 0 1.707-.293.293-.293.293-.764.293-1.707v-3.5c0-1.657.528-3 2.088-3 .78 0 1.412.672 1.412 1.5v4.5c0 .943 0 1.414.293 1.707.293.293.764.293 1.707.293h.499c.942 0 1.414 0 1.707-.293.292-.293.293-.764.293-1.706L22.5 14c0-2.486-2.364-4.5-4.703-4.5-1.332 0-2.52.652-3.297 1.673 0-.63 0-.945-.137-1.179a1 1 0 0 0-.358-.358c-.234-.137-.549-.137-1.179-.137Z"/></svg>