<svg xmlns="http://www.w3.org/2000/svg" width="34" height="35" fill="none"><path stroke="#74B02A" stroke-linecap="round" stroke-linejoin="round" stroke-width="2.107" d="M14.163 12.909h-1.816c-.636 0-1.246.252-1.695.702m9.128-.702h1.816c.636 0 1.246.252 1.695.702"/><path stroke="#74B02A" stroke-linecap="round" stroke-linejoin="round" stroke-width="2.107" d="M16.971 31.868c7.757 0 14.044-6.288 14.044-14.044S24.728 3.78 16.971 3.78c-7.756 0-14.043 6.288-14.043 14.044S9.215 31.868 16.97 31.868Z"/><path stroke="#74B02A" stroke-linecap="round" stroke-linejoin="round" stroke-width="2.107" d="M10.39 26.138c-.587-1.92-.587-4.874-.003-6.794.363-1.193 1.385-1.52 2.537-1.52h8.095c1.15 0 2.172.327 2.535 1.518.586 1.92.586 4.875 0 6.795-.363 1.19-1.385 1.518-2.535 1.518h-8.095c-1.15 0-2.171-.327-2.535-1.517ZM9.95 19.93l-7.022-2.106m21.065 2.106 7.022-2.106M9.95 25.548l-4.916-.702m18.96.702 4.915-.702"/></svg>